<svg width="88" height="96" viewBox="0 0 88 96" fill="none" xmlns="http://www.w3.org/2000/svg">
<line x1="49.0004" y1="50.4698" x2="48.0004" y2="14.4698" stroke="#70B41A" stroke-width="2"/>
<path d="M42.4277 42.9321C44.9041 46.9565 46.0723 51.2756 45.9712 55.0511C40.9739 63.4671 56.6957 77.568 51.5856 80.7124C46.4756 83.8568 40.9739 63.4671 31.2088 64.135C27.793 62.5236 24.4639 59.5342 21.9875 55.5097C16.8913 47.2277 17.3356 37.6982 22.98 34.225C28.6244 30.7517 37.3315 34.65 42.4277 42.9321Z" fill="#497314"/>
<path d="M34.8246 52.4418L37.0739 46.4583L36.7193 37.0806M40.5813 61.254L42.4761 45.8928M34.8246 52.4418L37.0739 46.4583L36.7194 37.0806" stroke="#EEF1DC"/>
<path d="M23.345 48.9348L29.1777 53.458L36.4949 56.1321M28.8787 57.9277L42.0286 65.1249" stroke="#EEF1DC"/>
<path d="M21.2406 41.8929L25.0473 44.2629L29.5099 44.6819L30.9706 41.3054L29.1103 36.1091" stroke="#EEF1DC"/>
<path d="M28.8644 44.7417L30.1419 43.9556L54.1305 81.0317L50.7238 83.128L28.8644 44.7417Z" fill="#EEF1DC"/>
<path d="M74.806 52.6995C73.1591 57.0456 70.4774 60.5424 67.4443 62.7195C57.7547 63.8321 56.3079 84.582 50.6973 82.4559C45.0866 80.3297 57.7547 63.8321 51.2358 56.5773C50.4073 52.9369 50.7164 48.5411 52.3634 44.1949C55.7527 35.2509 63.5242 29.9042 69.7216 32.2526C75.919 34.6011 78.1953 43.7555 74.806 52.6995Z" fill="#497314"/>
<path d="M62.6563 52.4232L68.7452 50.6104L75.907 44.7282M59.2552 62.2018L72.5059 54.5067M62.6563 52.4232L68.7452 50.6104L75.907 44.7282" stroke="#EEF1DC"/>
<path d="M58.3703 41.3296L58.3908 48.6045L60.7775 55.9379M54.6901 51.0413L57.0973 65.6496" stroke="#EEF1DC"/>
<path d="M62.62 35.4718L63.0915 39.8718L65.5007 43.6201L69.0542 42.7471L72.0014 38.1836" stroke="#EEF1DC"/>
<path d="M65.0575 43.1498L66.4601 43.6814L52.0079 84.6412L48.2675 83.2238L65.0575 43.1498Z" fill="#EEF1DC"/>
<path d="M62.9164 58.9514C62.9164 61.8948 61.6478 64.5674 59.5831 66.5374C50.9164 69.3707 56.9164 81.9836 50.9164 81.9836C44.9164 81.9836 50.9164 69.3707 42.2497 66.5374C40.185 64.5674 38.9164 61.8948 38.9164 58.9514C38.9164 52.8941 44.289 47.9836 50.9164 47.9836C57.5438 47.9836 62.9164 52.8941 62.9164 58.9514Z" fill="#497314"/>
<path d="M51.4572 61.5144L56.5086 59.0744L61.1213 53.9837M51.7418 68.0686L61.4059 60.5379M51.4572 61.5144L56.5086 59.0744L61.1213 53.9837" stroke="#EEF1DC"/>
<path d="M43.5182 55.9065L46.1153 60.2102L50.9458 64.0174M43.5182 62.4838L50.9458 70.5946" stroke="#EEF1DC"/>
<path d="M45.4164 51.4839L47.4164 53.9838L50.9976 55.6629L54.0111 54.3485L55.15 50.9846" stroke="#EEF1DC"/>
<path d="M50.4164 55.4838H51.9164L52.9164 82.9838H48.9164L50.4164 55.4838Z" fill="#EEF1DC"/>
<ellipse cx="52.8448" cy="10.2957" rx="8" ry="4" transform="rotate(-55.2739 52.8448 10.2957)" fill="white"/>
<ellipse cx="47.898" cy="22.5354" rx="8" ry="4.73867" transform="rotate(-88.8519 47.898 22.5354)" fill="white"/>
<ellipse cx="43.5185" cy="8.89276" rx="8" ry="4" transform="rotate(-110.413 43.5185 8.89276)" fill="white"/>
<ellipse rx="7.94037" ry="4.34054" transform="matrix(-0.600669 0.799498 -0.919583 -0.392896 42.7925 20.8392)" fill="white"/>
<ellipse rx="7.4789" ry="4.54083" transform="matrix(0.511322 0.859389 -0.933373 0.358909 53.7187 21.147)" fill="white"/>
<ellipse cx="47.5" cy="17.442" rx="2.5" ry="2" fill="#FFC803"/>
</svg>
