<svg width="118" height="160" viewBox="0 0 118 160" fill="none" xmlns="http://www.w3.org/2000/svg">
<ellipse rx="9.09619" ry="15.4802" transform="matrix(0.797966 0.602702 -0.424708 0.90533 67.833 42.4871)" fill="#70B41A"/>
<path d="M61.2584 56.5017L73.0263 31.4167" stroke="#497314"/>
<line y1="-0.5" x2="7.33384" y2="-0.5" transform="matrix(-0.175416 -1.08248 0.898583 -0.0117325 68.5718 41.8142)" stroke="#497314"/>
<line y1="-0.5" x2="8.22248" y2="-0.5" transform="matrix(-0.0992109 -1.08752 0.903568 0.075134 64.8062 49.8413)" stroke="#497314"/>
<line y1="-0.5" x2="7.3651" y2="-0.5" transform="matrix(0.845168 -0.284193 0.393527 1.02085 66.4495 46.8333)" stroke="#497314"/>
<line y1="-0.5" x2="7.3651" y2="-0.5" transform="matrix(0.845168 -0.284193 0.393527 1.02085 63.1544 53.8573)" stroke="#497314"/>
<line y1="-0.5" x2="5.73521" y2="-0.5" transform="matrix(0.834536 -0.317457 0.418105 1.00896 70.2151 38.806)" stroke="#497314"/>
<path d="M62 24L62 160" stroke="#734D14" stroke-width="3"/>
<ellipse rx="10.0436" ry="12.0967" transform="matrix(0.487397 0.87318 -0.743478 0.66876 103.889 77.8597)" fill="#70B41A"/>
<path d="M94.8951 85.9493L110.993 71.4693" stroke="#497314"/>
<line y1="-0.5" x2="6.77678" y2="-0.5" transform="matrix(0.118949 -1.09782 0.761963 0.496007 104.683 77.7124)" stroke="#497314"/>
<line y1="-0.5" x2="7.37334" y2="-0.5" transform="matrix(0.196655 -1.08755 0.730206 0.559474 99.5316 82.3461)" stroke="#497314"/>
<line y1="-0.5" x2="6.88806" y2="-0.5" transform="matrix(0.846443 0.258599 0.0912361 1.08284 101.661 80.7419)" stroke="#497314"/>
<line y1="-0.5" x2="6.88806" y2="-0.5" transform="matrix(0.846443 0.258599 0.0912361 1.08284 97.1531 84.7968)" stroke="#497314"/>
<line y1="-0.5" x2="5.30484" y2="-0.5" transform="matrix(0.854642 0.224537 0.114057 1.0775 106.812 76.1084)" stroke="#497314"/>
<ellipse rx="9.09619" ry="15.4802" transform="matrix(0.0851811 0.996365 -0.957229 0.28933 86.558 96.1515)" fill="#70B41A"/>
<path d="M71.7399 100.63L98.2629 92.6136" stroke="#497314"/>
<line y1="-0.5" x2="7.33384" y2="-0.5" transform="matrix(0.687809 -0.854082 0.609413 0.660458 87.5523 96.2512)" stroke="#497314"/>
<line y1="-0.5" x2="8.22248" y2="-0.5" transform="matrix(0.742501 -0.800777 0.548141 0.722234 79.0651 98.8165)" stroke="#497314"/>
<line y1="-0.5" x2="7.3651" y2="-0.5" transform="matrix(0.776343 0.438597 -0.496168 0.975097 82.4008 98.0278)" stroke="#497314"/>
<line y1="-0.5" x2="7.3651" y2="-0.5" transform="matrix(0.776343 0.438597 -0.496168 0.975097 74.9741 100.273)" stroke="#497314"/>
<line y1="-0.5" x2="5.73521" y2="-0.5" transform="matrix(0.793975 0.408453 -0.470897 0.98543 90.8881 95.4624)" stroke="#497314"/>
<path d="M96 84.5001L62 106.356" stroke="#734D14" stroke-width="2"/>
<ellipse rx="9.30775" ry="15.2239" transform="matrix(0.995934 0.0900854 -0.320563 0.947227 76.1501 88.259)" fill="#70B41A"/>
<path d="M71.2698 102.679L80.005 76.868" stroke="#497314"/>
<line y1="-0.5" x2="7.33052" y2="-0.5" transform="matrix(-0.400202 -0.780391 1.00879 -0.443589 76.8657 87.3599)" stroke="#497314"/>
<line y1="-0.5" x2="8.19186" y2="-0.5" transform="matrix(-0.31547 -0.82437 1.02744 -0.376214 74.0705 95.6194)" stroke="#497314"/>
<line y1="-0.5" x2="7.37182" y2="-0.5" transform="matrix(0.907643 -0.639607 0.630603 0.618273 75.382 92.4106)" stroke="#497314"/>
<line y1="-0.5" x2="7.37182" y2="-0.5" transform="matrix(0.907643 -0.639607 0.630603 0.618273 72.9361 99.6382)" stroke="#497314"/>
<line y1="-0.5" x2="5.73325" y2="-0.5" transform="matrix(0.890522 -0.661826 0.65537 0.596292 78.1771 84.1512)" stroke="#497314"/>
<ellipse rx="10.0436" ry="12.0967" transform="matrix(0.667097 -0.744971 0.874268 0.485444 20.4611 80.4905)" fill="#70B41A"/>
<path d="M31.0369 86.3628L12.1072 75.8519" stroke="#497314"/>
<line y1="-0.5" x2="6.77678" y2="-0.5" transform="matrix(-1.07679 0.244701 0.221113 -0.881884 20.0636 79.7876)" stroke="#497314"/>
<line y1="-0.5" x2="7.37334" y2="-0.5" transform="matrix(-1.09236 0.167882 0.291459 -0.872504 26.1212 83.151)" stroke="#497314"/>
<line y1="-0.5" x2="6.88806" y2="-0.5" transform="matrix(-0.0308638 -0.884526 0.994243 -0.438578 23.9116 81.6595)" stroke="#497314"/>
<line y1="-0.5" x2="6.88806" y2="-0.5" transform="matrix(-0.0308638 -0.884526 0.994243 -0.438578 29.2123 84.6028)" stroke="#497314"/>
<line y1="-0.5" x2="5.30484" y2="-0.5" transform="matrix(-0.0657402 -0.881197 0.981767 -0.45842 17.8542 78.2961)" stroke="#497314"/>
<ellipse rx="9.09619" ry="15.4802" transform="matrix(0.914442 -0.404717 0.585026 0.811014 43.3964 90.927)" fill="#70B41A"/>
<path d="M52.4528 103.482L36.2428 81.01" stroke="#497314"/>
<line y1="-0.5" x2="7.33384" y2="-0.5" transform="matrix(-1.03139 -0.372508 0.42625 -0.791139 43.1672 89.9543)" stroke="#497314"/>
<line y1="-0.5" x2="8.22248" y2="-0.5" transform="matrix(-0.998784 -0.441568 0.5046 -0.753299 48.3544 97.1451)" stroke="#497314"/>
<line y1="-0.5" x2="7.3651" y2="-0.5" transform="matrix(0.162148 -0.876803 1.08347 0.151922 46.5233 94.2474)" stroke="#497314"/>
<line y1="-0.5" x2="7.3651" y2="-0.5" transform="matrix(0.162148 -0.876803 1.08347 0.151922 51.0623 100.54)" stroke="#497314"/>
<line y1="-0.5" x2="5.73521" y2="-0.5" transform="matrix(0.127908 -0.883668 1.08502 0.124664 41.3361 87.0566)" stroke="#497314"/>
<path d="M29.307 85.7896L61.0362 110.829" stroke="#734D14" stroke-width="2"/>
<ellipse rx="9.30775" ry="15.2239" transform="matrix(-0.238846 -0.971057 0.999987 -0.00506113 39.3195 103.336)" fill="#70B41A"/>
<path d="M54.5432 103.26L27.2942 103.397" stroke="#497314"/>
<line y1="-0.5" x2="7.33052" y2="-0.5" transform="matrix(-0.607725 0.63233 -0.747668 -0.809582 38.2365 102.952)" stroke="#497314"/>
<line y1="-0.5" x2="8.19186" y2="-0.5" transform="matrix(-0.676879 0.566517 -0.690027 -0.84914 46.9561 102.908)" stroke="#497314"/>
<line y1="-0.5" x2="7.37182" y2="-0.5" transform="matrix(-0.900112 -0.650162 0.379466 -0.79745 43.4952 102.712)" stroke="#497314"/>
<line y1="-0.5" x2="7.37182" y2="-0.5" transform="matrix(-0.900112 -0.650162 0.379466 -0.79745 51.1253 102.673)" stroke="#497314"/>
<line y1="-0.5" x2="5.73325" y2="-0.5" transform="matrix(-0.915552 -0.626743 0.350623 -0.813718 34.7758 102.756)" stroke="#497314"/>
<ellipse rx="9.30775" ry="15.2239" transform="matrix(0.732764 -0.680483 0.490188 0.871617 55.0056 44.9517)" fill="#70B41A"/>
<path d="M62.4681 58.2211L49.1108 34.4701" stroke="#497314"/>
<line y1="-0.5" x2="7.33052" y2="-0.5" transform="matrix(-0.847926 -0.224037 0.344451 -1.0468 54.8153 43.8185)" stroke="#497314"/>
<line y1="-0.5" x2="8.19186" y2="-0.5" transform="matrix(-0.823993 -0.316454 0.407027 -1.01563 59.0896 51.4187)" stroke="#497314"/>
<line y1="-0.5" x2="7.37182" y2="-0.5" transform="matrix(0.13105 -1.10261 0.881374 -0.0556916 57.5799 48.2983)" stroke="#497314"/>
<line y1="-0.5" x2="7.37182" y2="-0.5" transform="matrix(0.13105 -1.10261 0.881374 -0.0556916 61.3202 54.9489)" stroke="#497314"/>
<line y1="-0.5" x2="5.73325" y2="-0.5" transform="matrix(0.10308 -1.10472 0.881582 -0.0888054 53.3056 40.6982)" stroke="#497314"/>
<ellipse rx="12.6591" ry="21.3709" transform="matrix(0.584292 -0.811544 0.714951 0.699175 45.6757 125.697)" fill="#70B41A"/>
<line y1="-0.5" x2="38.0299" y2="-0.5" transform="matrix(-0.714951 -0.699175 0.584292 -0.811544 61.448 139.954)" stroke="#497314"/>
<line y1="-0.5" x2="10.1223" y2="-0.5" transform="matrix(-0.92332 -0.0213707 0.0861773 -1.06356 45.0976 124.378)" stroke="#497314"/>
<line y1="-0.5" x2="11.3359" y2="-0.5" transform="matrix(-0.920412 -0.112907 0.158854 -1.05007 53.7983 132.886)" stroke="#497314"/>
<line y1="-0.5" x2="10.1702" y2="-0.5" transform="matrix(-0.146807 -1.06163 0.892079 -0.249379 50.5722 129.318)" stroke="#497314"/>
<line y1="-0.5" x2="10.1702" y2="-0.5" transform="matrix(-0.146807 -1.06163 0.892079 -0.249379 58.1852 136.763)" stroke="#497314"/>
<line y1="-0.5" x2="7.91611" y2="-0.5" transform="matrix(-0.175804 -1.05654 0.884456 -0.280813 41.8716 120.81)" stroke="#497314"/>
<ellipse rx="12.6591" ry="21.3709" transform="matrix(0.584292 0.811544 -0.714951 0.699175 78.3242 125.878)" fill="#70B41A"/>
<path d="M63.0451 140.82L90.3934 114.075" stroke="#497314"/>
<line y1="-0.5" x2="10.1574" y2="-0.5" transform="matrix(0.180981 -1.05551 0.884458 0.280805 79.6337 125.351)" stroke="#497314"/>
<line y1="-0.5" x2="11.3807" y2="-0.5" transform="matrix(0.25765 -1.03606 0.860562 0.362156 70.8823 133.91)" stroke="#497314"/>
<line y1="-0.5" x2="10.2035" y2="-0.5" transform="matrix(0.922674 0.0127569 0.0532681 1.06744 74.4775 130.807)" stroke="#497314"/>
<line y1="-0.5" x2="10.2035" y2="-0.5" transform="matrix(0.922674 0.0127569 0.0532681 1.06744 66.82 138.296)" stroke="#497314"/>
<line y1="-0.5" x2="7.94347" y2="-0.5" transform="matrix(0.92332 -0.0213792 0.0812142 1.06423 83.229 122.249)" stroke="#497314"/>
<ellipse rx="12.6591" ry="21.3709" transform="matrix(0.584292 -0.811544 0.714951 0.699175 45.6757 70.2154)" fill="#70B41A"/>
<line y1="-0.5" x2="38.0299" y2="-0.5" transform="matrix(-0.714951 -0.699175 0.584292 -0.811544 61.448 84.4725)" stroke="#497314"/>
<line y1="-0.5" x2="10.1223" y2="-0.5" transform="matrix(-0.92332 -0.0213707 0.0861773 -1.06356 45.0976 68.8964)" stroke="#497314"/>
<line y1="-0.5" x2="11.3359" y2="-0.5" transform="matrix(-0.920412 -0.112907 0.158854 -1.05007 53.7983 77.4049)" stroke="#497314"/>
<line y1="-0.5" x2="10.1702" y2="-0.5" transform="matrix(-0.146807 -1.06163 0.892079 -0.249379 50.5722 73.8367)" stroke="#497314"/>
<line y1="-0.5" x2="10.1702" y2="-0.5" transform="matrix(-0.146807 -1.06163 0.892079 -0.249379 58.1852 81.2819)" stroke="#497314"/>
<line y1="-0.5" x2="7.91611" y2="-0.5" transform="matrix(-0.175804 -1.05654 0.884456 -0.280813 41.8716 65.3281)" stroke="#497314"/>
<ellipse rx="12.6591" ry="21.3709" transform="matrix(0.584292 0.811544 -0.714951 0.699175 78.3242 70.3968)" fill="#70B41A"/>
<path d="M63.0451 85.3387L90.3934 58.5939" stroke="#497314"/>
<line y1="-0.5" x2="10.1574" y2="-0.5" transform="matrix(0.180981 -1.05551 0.884458 0.280805 79.6337 69.8699)" stroke="#497314"/>
<line y1="-0.5" x2="11.3807" y2="-0.5" transform="matrix(0.25765 -1.03606 0.860562 0.362156 70.8823 78.4283)" stroke="#497314"/>
<line y1="-0.5" x2="10.2035" y2="-0.5" transform="matrix(0.922674 0.0127569 0.0532681 1.06744 74.4775 75.3257)" stroke="#497314"/>
<line y1="-0.5" x2="10.2035" y2="-0.5" transform="matrix(0.922674 0.0127569 0.0532681 1.06744 66.82 82.8142)" stroke="#497314"/>
<line y1="-0.5" x2="7.94347" y2="-0.5" transform="matrix(0.92332 -0.0213792 0.0812142 1.06423 83.229 66.7672)" stroke="#497314"/>
<ellipse rx="8.43263" ry="14.0497" transform="matrix(1 -1.81956e-08 -0.00470084 0.999989 61.5142 14.0495)" fill="#70B41A"/>
<path d="M61.4533 28.0992L61.5669 2.95189" stroke="#497314"/>
<line y1="-0.5" x2="6.71354" y2="-0.5" transform="matrix(-0.63677 -0.768166 0.83439 -0.554946 61.8839 13.1384)" stroke="#497314"/>
<line y1="-0.5" x2="7.5139" y2="-0.5" transform="matrix(-0.568338 -0.820214 0.875369 -0.487416 61.8476 21.1855)" stroke="#497314"/>
<line y1="-0.5" x2="6.74706" y2="-0.5" transform="matrix(0.669941 -0.745432 0.81055 0.582006 62.0609 18.0402)" stroke="#497314"/>
<line y1="-0.5" x2="6.74706" y2="-0.5" transform="matrix(0.669941 -0.745432 0.81055 0.582006 62.0291 25.0818)" stroke="#497314"/>
<line y1="-0.5" x2="5.25043" y2="-0.5" transform="matrix(0.645897 -0.766333 0.827872 0.557177 62.0972 9.99304)" stroke="#497314"/>
<path d="M95.5 87.5C97.2383 87.5 98.5 85.8438 98.5 84C98.5 82.1562 97.2383 80.5 95.5 80.5C93.7617 80.5 92.5 82.1562 92.5 84C92.5 85.8438 93.7617 87.5 95.5 87.5Z" fill="#FE0303" stroke="black"/>
<path d="M29.5 89.5C31.2383 89.5 32.5 87.8438 32.5 86C32.5 84.1562 31.2383 82.5 29.5 82.5C27.7617 82.5 26.5 84.1562 26.5 86C26.5 87.8438 27.7617 89.5 29.5 89.5Z" fill="#FE0303" stroke="black"/>
<path d="M61.5 62.5C63.2383 62.5 64.5 60.8438 64.5 59C64.5 57.1562 63.2383 55.5 61.5 55.5C59.7617 55.5 58.5 57.1562 58.5 59C58.5 60.8438 59.7617 62.5 61.5 62.5Z" fill="#FE0303" stroke="black"/>
<path d="M53.5 104.5C55.2383 104.5 56.5 102.844 56.5 101C56.5 99.1562 55.2383 97.5 53.5 97.5C51.7617 97.5 50.5 99.1562 50.5 101C50.5 102.844 51.7617 104.5 53.5 104.5Z" fill="#FE0303" stroke="black"/>
<path d="M69.5 106.5C71.2383 106.5 72.5 104.844 72.5 103C72.5 101.156 71.2383 99.5 69.5 99.5C67.7617 99.5 66.5 101.156 66.5 103C66.5 104.844 67.7617 106.5 69.5 106.5Z" fill="#FE0303" stroke="black"/>
</svg>
